<svg xmlns="http://www.w3.org/2000/svg" viewBox="0 0 841.9 595.3">
  <g fill="#61DAFB">
    <path d="M666.3 296.5c0-32.5-40.7-63.3-103.1-82.4 14.4-63.6 8-114.2-20.2-130.4-6.5-3.8-14.1-5.6-22.4-5.6v-1.3c23.9-2.7 47.6-9.2 69.8-19.5l-3.7-7c-27.5 13.9-56.2 23.8-86.4 29.8 0-8.2 1.3-16.5 3.9-24.7l6.5-2c-11.2-2.7-22.3-5.3-33.3-7.9-6.4 2.7-12.9 5.3-19.4 7.9l-6.5-2c-2.6-8.2-3.9-16.5-3.9-24.7-30.2-6-58.9-15.9-86.4-29.8l-3.7 7c22.2 10.3 45.9 16.8 69.8 19.5v1.3c-8.3 0-15.9 1.8-22.4 5.6-28.2 16.2-34.7 66.8-20.2 130.4-62.4 19.1-103.1 49.9-103.1 82.4 0 32.5 40.7 63.3 103.1 82.4-14.4 63.6-8 114.2 20.2 130.4 6.5 3.8 14.1 5.6 22.4 5.6v1.3c-23.9 2.7-47.6 9.2-69.8 19.5l3.7 7c27.5-13.9 56.2-23.8 86.4-29.8 0 8.2-1.3 16.5-3.9 24.7l-6.5 2c11.2 2.7 22.3 5.3 33.3 7.9 6.4-2.7 12.9-5.3 19.4-7.9l6.5 2c2.6 8.2 3.9 16.5 3.9 24.7 30.2 6 58.9 15.9 86.4 29.8l3.7-7c-22.2-10.3-45.9-16.8-69.8-19.5v-1.3c8.3 0 15.9-1.8 22.4-5.6 28.2-16.2 34.7-66.8 20.2-130.4 62.4-19.1 103.1-49.9 103.1-82.4zM420.7 363.6c-24.4 0-46.6-7.3-65.7-21.9-1.4-1.1-2.5-2.5-3.5-4-1.4-2.1-2.8-4.3-4-6.6-3.5-6.5-6.7-13.2-9.3-20.1-3.5-9.3-5.3-19.1-5.3-29.3 0-18.2 6.8-35.3 18.9-49.7 1.4-1.7 2.9-3.3 4.4-4.8 1.6-1.6 3.2-3.1 4.9-4.6 19.1-14.6 41.3-21.9 65.7-21.9 24.4 0 46.6 7.3 65.7 21.9 1.4 1.1 2.5 2.5 3.5 4 1.4 2.1 2.8 4.3 4 6.6 3.5 6.5 6.7 13.2 9.3 20.1 3.5 9.3 5.3 19.1 5.3 29.3 0 18.2-6.8 35.3-18.9 49.7-1.4 1.7-2.9 3.3-4.4 4.8-1.6 1.6-3.2 3.1-4.9 4.6-19.1 14.6-41.3 21.9-65.7 21.9z"/>
  </g>
</svg>
